<?xml version="1.0" encoding="UTF-8"?>
<!DOCTYPE svg PUBLIC "-//W3C//DTD SVG 1.1//EN" "http://www.w3.org/Graphics/SVG/1.1/DTD/svg11.dtd">
<!-- Creator: CorelDRAW X6 -->
<svg xmlns="http://www.w3.org/2000/svg" xml:space="preserve" width="4.13386in" height="5.11811in" version="1.1" style="shape-rendering:geometricPrecision; text-rendering:geometricPrecision; image-rendering:optimizeQuality; fill-rule:evenodd; clip-rule:evenodd"
viewBox="0 0 4134 5118"
 xmlns:xlink="http://www.w3.org/1999/xlink">
 <defs>
  <style type="text/css">
   <![CDATA[
    .str7 {stroke:black;stroke-width:0.0511811}
    .str5 {stroke:#373435;stroke-width:3}
    .str8 {stroke:#FEFEFE;stroke-width:3}
    .str3 {stroke:#373435;stroke-width:3.93701}
    .str1 {stroke:#373435;stroke-width:3.93701;stroke-linecap:round;stroke-linejoin:round}
    .str4 {stroke:#373435;stroke-width:7}
    .str2 {stroke:#373435;stroke-width:7;stroke-linecap:round;stroke-linejoin:round}
    .str6 {stroke:#373435;stroke-width:43.8189}
    .str0 {stroke:#373435;stroke-width:54.7756}
    .fil0 {fill:none}
    .fil2 {fill:#373435}
    .fil1 {fill:#FEFEFE}
   ]]>
  </style>
 </defs>
 <g id="Layer_x0020_1">
  <metadata id="CorelCorpID_0Corel-Layer"/>
  <g id="_167449432">
   <g>
    <g>
     <path class="fil0 str0" d="M2025 4260c-109,-107 -126,-332 -126,-332 -18,42 -115,164 -248,164 -206,0 -197,-228 -91,-270 -15,148 246,109 235,-25 -174,98 -301,-21 -304,-88 -3,-52 12,-121 103,-130 -3,197 266,88 254,-31 -109,88 -187,-60 -121,-109 85,79 145,-115 152,-167 -34,40 -82,19 -82,19 121,-127 127,-309 119,-421 -167,205 -139,324 -139,324 -9,-3 -31,-27 -31,-27 -24,70 -12,127 -12,127 -42,-3 -97,-42 -118,-66 -37,24 -254,278 -288,351 -20,43 20,52 34,46 15,-6 55,-20 83,21 29,41 -9,88 -46,89 -9,94 -117,60 -131,27 34,21 61,-12 61,-12 -6,-8 -2,-17 -2,-17 -24,-6 -37,-34 -35,-44 -16,8 -65,-6 -88,-32l-105 149c20,77 -24,89 -32,88 3,9 -14,9 -14,9 -6,21 14,52 29,56 -80,34 -88,-29 -88,-29 -8,-4 -9,-13 -5,-24 0,0 -39,-20 -36,-65 4,-62 49,-72 81,-77 10,-18 62,-72 62,-72 -89,-3 -151,50 -151,50 7,10 -17,36 -27,32 2,12 -15,21 -23,21 -16,36 5,62 5,62 -46,6 -85,-36 -76,-61 0,0 -4,-21 7,-24 -52,-66 9,-118 51,-118 43,0 73,-40 109,-34 37,6 79,-6 79,-6 -21,-27 -137,-21 -137,-21 -15,15 -58,15 -78,0 -9,-6 -9,14 -31,-2 -21,-15 -38,29 -38,29 -32,-22 -12,-62 -1,-70 0,0 4,-14 15,-15 -3,-18 12,-66 76,-66 64,0 58,24 88,40 30,15 72,-3 118,27 27,18 91,-3 125,-27l-12 -13c33,-6 82,-45 82,-45 -6,0 -26,-11 -26,-11 34,-3 92,-74 92,-74 -9,0 -24,-21 -24,-21 64,-6 109,-64 109,-64 -15,0 -30,-15 -30,-15 66,-33 103,-130 103,-130 -125,36 -133,-24 -133,-24 66,-27 96,-76 96,-76 -12,0 -36,-12 -36,-12 40,-24 67,-70 76,-84l-33 -3c27,-12 66,-64 66,-64 -12,3 -36,-9 -36,-9 157,-102 109,-402 327,-354 -34,-30 -22,-64 -22,-64 -90,67 -203,-3 -203,-3 42,200 -43,309 -91,351l-30 -36c-6,127 -107,218 -107,218 21,-101 -3,-300 -3,-300 3,282 -230,554 -230,554 -55,-85 -49,-436 -49,-436 -175,369 -345,254 -345,254 176,-90 230,-339 230,-339 -54,139 -326,254 -326,254 -25,-339 193,-528 193,-528 -248,145 -473,43 -473,43 182,-7 394,-176 394,-176 -92,21 -229,65 -382,6 73,-139 303,-230 303,-230 -248,-18 -266,-127 -266,-127 90,36 284,6 284,6 -200,-16 -276,-123 -276,-123 149,-78 196,-58 240,-65 -182,-84 -170,-169 -170,-169 43,48 206,73 206,73 -74,-37 -147,-182 -147,-182 121,-30 244,18 244,18 -127,-85 -103,-193 -103,-193 42,60 188,133 188,133 -61,-49 -121,-218 -127,-279 60,12 175,61 290,164 -157,-146 -182,-297 -182,-297 364,49 528,194 649,339 300,359 61,534 -12,512 -3,40 -9,76 34,103 42,27 157,48 157,48 0,-79 36,-122 36,-122 -39,-18 -21,-70 -21,-70 58,34 149,-98 193,-159 0,0 -5,-2 -30,-8 55,-16 191,-157 109,-278 -43,-64 -161,-21 -215,-9 -30,7 -91,18 -119,-72 83,66 139,-14 212,-32 -34,-82 -197,-44 -197,-44 -15,-146 72,-128 115,-119 115,-200 351,24 467,-91 12,18 15,88 -6,95 0,0 54,9 60,-6 0,0 21,58 -24,94 64,155 -24,351 24,448 0,0 -24,12 -36,-3 0,49 -40,194 91,200 -6,21 -18,64 -49,82 0,0 34,58 27,100 0,0 115,-21 157,-48 43,-27 37,-64 34,-103 -72,21 -312,-152 -12,-512 121,-145 285,-290 649,-339 0,0 -24,152 -182,297 115,-103 230,-151 291,-164 -6,61 -67,230 -127,279 0,0 145,-73 187,-133 0,0 24,109 -103,193 0,0 123,-48 244,-18 0,0 -72,145 -147,182 0,0 164,-24 206,-73 0,0 12,85 -170,170 45,7 91,-14 240,64 0,0 -76,107 -276,123 0,0 194,30 285,-6 0,0 -19,109 -267,127 0,0 230,91 303,230 -152,60 -290,15 -381,-6 0,0 211,170 393,176 0,0 -224,103 -473,-43 0,0 218,188 194,528 0,0 -273,-115 -327,-254 0,0 54,248 230,339 0,0 -170,115 -345,-255 0,0 6,351 -49,436 0,0 -233,-272 -230,-554 0,0 -24,200 -3,300 0,0 -100,-91 -107,-218l-30 36c-48,-42 -133,-151 -91,-351 0,0 -112,70 -203,3 0,0 12,34 -21,64 218,-48 170,252 327,355 0,0 -24,12 -36,9 0,0 40,52 67,64l-34 3c9,15 36,60 76,84 0,0 -24,13 -36,13 0,0 30,48 96,76 0,0 -9,60 -133,24 0,0 37,97 103,130 0,0 -15,15 -30,15 0,0 46,58 109,64 0,0 -15,21 -24,21 0,0 58,71 92,74 0,0 -20,11 -26,11 0,0 49,39 82,45l-12 13c34,24 97,45 125,27 46,-30 88,-12 118,-27 31,-15 25,-40 88,-40 64,0 78,48 76,66 10,2 15,15 15,15 11,8 31,47 -1,70 0,0 -17,-44 -38,-28 -21,15 -21,-5 -31,1 -21,15 -64,15 -78,0 0,0 -115,-6 -137,21 0,0 42,12 79,6 36,-6 66,34 109,34 42,0 102,52 52,118 10,3 6,25 6,25 9,24 -31,66 -76,60 0,0 21,-26 5,-62 -8,0 -24,-9 -23,-21 -10,4 -34,-21 -27,-32 0,0 -63,-53 -152,-50 0,0 52,54 63,73 32,4 76,15 80,76 3,46 -36,65 -36,65 4,11 3,20 -5,24 0,0 -7,64 -88,29 15,-3 35,-35 29,-56 0,0 -17,0 -14,-9 -8,2 -52,-10 -32,-88l-105 -149c-22,26 -71,40 -88,32 2,9 -11,38 -35,44 0,0 5,9 -1,17 0,0 27,33 60,12 -14,34 -121,66 -131,-27 -38,-2 -76,-48 -46,-89 28,-41 68,-27 83,-21 15,6 54,-3 34,-46 -34,-73 -251,-327 -288,-351 -21,24 -76,64 -118,66 0,0 12,-58 -12,-127 0,0 -21,24 -31,27 0,0 27,-119 -139,-324 -9,112 -3,294 119,421 0,0 -49,21 -82,-18 6,51 66,245 151,166 66,49 -12,198 -121,109 -12,119 258,228 254,31 91,9 112,79 103,130 -12,70 -130,186 -304,88 -11,134 249,174 235,25 106,42 115,270 -91,270 -133,0 -230,-121 -248,-164 0,0 3,218 -107,326z"/>
     <path id="1" class="fil1" d="M2025 4260c-109,-107 -126,-332 -126,-332 -18,42 -115,164 -248,164 -206,0 -197,-228 -91,-270 -15,148 246,109 235,-25 -174,98 -301,-21 -304,-88 -3,-52 12,-121 103,-130 -3,197 266,88 254,-31 -109,88 -187,-60 -121,-109 85,79 145,-115 152,-167 -34,40 -82,19 -82,19 121,-127 127,-309 119,-421 -167,205 -139,324 -139,324 -9,-3 -31,-27 -31,-27 -24,70 -12,127 -12,127 -42,-3 -97,-42 -118,-66 -37,24 -254,278 -288,351 -20,43 20,52 34,46 15,-6 55,-20 83,21 29,41 -9,88 -46,89 -9,94 -117,60 -131,27 34,21 61,-12 61,-12 -6,-8 -2,-17 -2,-17 -24,-6 -37,-34 -35,-44 -16,8 -65,-6 -88,-32l-105 149c20,77 -24,89 -32,88 3,9 -14,9 -14,9 -6,21 14,52 29,56 -80,34 -88,-29 -88,-29 -8,-4 -9,-13 -5,-24 0,0 -39,-20 -36,-65 4,-62 49,-72 81,-77 10,-18 62,-72 62,-72 -89,-3 -151,50 -151,50 7,10 -17,36 -27,32 2,12 -15,21 -23,21 -16,36 5,62 5,62 -46,6 -85,-36 -76,-61 0,0 -4,-21 7,-24 -52,-66 9,-118 51,-118 43,0 73,-40 109,-34 37,6 79,-6 79,-6 -21,-27 -137,-21 -137,-21 -15,15 -58,15 -78,0 -9,-6 -9,14 -31,-2 -21,-15 -38,29 -38,29 -32,-22 -12,-62 -1,-70 0,0 4,-14 15,-15 -3,-18 12,-66 76,-66 64,0 58,24 88,40 30,15 72,-3 118,27 27,18 91,-3 125,-27l-12 -13c33,-6 82,-45 82,-45 -6,0 -26,-11 -26,-11 34,-3 92,-74 92,-74 -9,0 -24,-21 -24,-21 64,-6 109,-64 109,-64 -15,0 -30,-15 -30,-15 66,-33 103,-130 103,-130 -125,36 -133,-24 -133,-24 66,-27 96,-76 96,-76 -12,0 -36,-12 -36,-12 40,-24 67,-70 76,-84l-33 -3c27,-12 66,-64 66,-64 -12,3 -36,-9 -36,-9 157,-102 109,-402 327,-354 -34,-30 -22,-64 -22,-64 -90,67 -203,-3 -203,-3 42,200 -43,309 -91,351l-30 -36c-6,127 -107,218 -107,218 21,-101 -3,-300 -3,-300 3,282 -230,554 -230,554 -55,-85 -49,-436 -49,-436 -175,369 -345,254 -345,254 176,-90 230,-339 230,-339 -54,139 -326,254 -326,254 -25,-339 193,-528 193,-528 -248,145 -473,43 -473,43 182,-7 394,-176 394,-176 -92,21 -229,65 -382,6 73,-139 303,-230 303,-230 -248,-18 -266,-127 -266,-127 90,36 284,6 284,6 -200,-16 -276,-123 -276,-123 149,-78 196,-58 240,-65 -182,-84 -170,-169 -170,-169 43,48 206,73 206,73 -74,-37 -147,-182 -147,-182 121,-30 244,18 244,18 -127,-85 -103,-193 -103,-193 42,60 188,133 188,133 -61,-49 -121,-218 -127,-279 60,12 175,61 290,164 -157,-146 -182,-297 -182,-297 364,49 528,194 649,339 300,359 61,534 -12,512 -3,40 -9,76 34,103 42,27 157,48 157,48 0,-79 36,-122 36,-122 -39,-18 -21,-70 -21,-70 58,34 149,-98 193,-159 0,0 -5,-2 -30,-8 55,-16 191,-157 109,-278 -43,-64 -161,-21 -215,-9 -30,7 -91,18 -119,-72 83,66 139,-14 212,-32 -34,-82 -197,-44 -197,-44 -15,-146 72,-128 115,-119 115,-200 351,24 467,-91 12,18 15,88 -6,95 0,0 54,9 60,-6 0,0 21,58 -24,94 64,155 -24,351 24,448 0,0 -24,12 -36,-3 0,49 -40,194 91,200 -6,21 -18,64 -49,82 0,0 34,58 27,100 0,0 115,-21 157,-48 43,-27 37,-64 34,-103 -72,21 -312,-152 -12,-512 121,-145 285,-290 649,-339 0,0 -24,152 -182,297 115,-103 230,-151 291,-164 -6,61 -67,230 -127,279 0,0 145,-73 187,-133 0,0 24,109 -103,193 0,0 123,-48 244,-18 0,0 -72,145 -147,182 0,0 164,-24 206,-73 0,0 12,85 -170,170 45,7 91,-14 240,64 0,0 -76,107 -276,123 0,0 194,30 285,-6 0,0 -19,109 -267,127 0,0 230,91 303,230 -152,60 -290,15 -381,-6 0,0 211,170 393,176 0,0 -224,103 -473,-43 0,0 218,188 194,528 0,0 -273,-115 -327,-254 0,0 54,248 230,339 0,0 -170,115 -345,-255 0,0 6,351 -49,436 0,0 -233,-272 -230,-554 0,0 -24,200 -3,300 0,0 -100,-91 -107,-218l-30 36c-48,-42 -133,-151 -91,-351 0,0 -112,70 -203,3 0,0 12,34 -21,64 218,-48 170,252 327,355 0,0 -24,12 -36,9 0,0 40,52 67,64l-34 3c9,15 36,60 76,84 0,0 -24,13 -36,13 0,0 30,48 96,76 0,0 -9,60 -133,24 0,0 37,97 103,130 0,0 -15,15 -30,15 0,0 46,58 109,64 0,0 -15,21 -24,21 0,0 58,71 92,74 0,0 -20,11 -26,11 0,0 49,39 82,45l-12 13c34,24 97,45 125,27 46,-30 88,-12 118,-27 31,-15 25,-40 88,-40 64,0 78,48 76,66 10,2 15,15 15,15 11,8 31,47 -1,70 0,0 -17,-44 -38,-28 -21,15 -21,-5 -31,1 -21,15 -64,15 -78,0 0,0 -115,-6 -137,21 0,0 42,12 79,6 36,-6 66,34 109,34 42,0 102,52 52,118 10,3 6,25 6,25 9,24 -31,66 -76,60 0,0 21,-26 5,-62 -8,0 -24,-9 -23,-21 -10,4 -34,-21 -27,-32 0,0 -63,-53 -152,-50 0,0 52,54 63,73 32,4 76,15 80,76 3,46 -36,65 -36,65 4,11 3,20 -5,24 0,0 -7,64 -88,29 15,-3 35,-35 29,-56 0,0 -17,0 -14,-9 -8,2 -52,-10 -32,-88l-105 -149c-22,26 -71,40 -88,32 2,9 -11,38 -35,44 0,0 5,9 -1,17 0,0 27,33 60,12 -14,34 -121,66 -131,-27 -38,-2 -76,-48 -46,-89 28,-41 68,-27 83,-21 15,6 54,-3 34,-46 -34,-73 -251,-327 -288,-351 -21,24 -76,64 -118,66 0,0 12,-58 -12,-127 0,0 -21,24 -31,27 0,0 27,-119 -139,-324 -9,112 -3,294 119,421 0,0 -49,21 -82,-18 6,51 66,245 151,166 66,49 -12,198 -121,109 -12,119 258,228 254,31 91,9 112,79 103,130 -12,70 -130,186 -304,88 -11,134 249,174 235,25 106,42 115,270 -91,270 -133,0 -230,-121 -248,-164 0,0 3,218 -107,326z"/>
    </g>
    <g>
     <path class="fil0 str1" d="M2743 1845c-6,52 -110,97 -110,97 -34,-40 -5,-131 -5,-131 -46,-8 -75,-13 -92,-44 0,0 47,-59 101,-52 -27,-71 24,-135 24,-135 0,0 78,23 96,98 54,-38 104,3 104,3 -4,44 -13,51 -43,70 0,0 76,58 70,110 0,0 -112,22 -145,-17z"/>
     <path class="fil0 str1" d="M1288 1839c5,52 110,98 110,98 33,-40 4,-131 4,-131 46,-8 75,-13 92,-44 0,0 -47,-60 -101,-52 27,-71 -23,-136 -23,-136 0,0 -78,24 -97,98 -53,-37 -104,3 -104,3 4,44 13,51 43,70 0,0 -75,58 -70,110 0,0 112,21 146,-18z"/>
    </g>
    <path class="fil0 str2" d="M2621 1840c-83,-2 -120,-29 -116,-83 3,-46 45,-76 88,-70 -3,-40 -10,-116 54,-137"/>
    <path class="fil0 str1" d="M2819 1395c-24,-3 -161,72 -162,149"/>
    <path class="fil0 str1" d="M3031 1533c-21,-11 -162,1 -220,78"/>
    <path class="fil0 str1" d="M3147 1753c-17,-20 -167,-60 -254,-3"/>
    <path class="fil0 str1" d="M3200 2002c-25,-26 -144,-84 -276,-77"/>
    <path class="fil0 str1" d="M2820 2236c100,90 287,91 312,75"/>
    <path class="fil0 str1" d="M2927 2508c-29,7 -191,-30 -254,-149"/>
    <path class="fil0 str1" d="M2510 2399c0,117 68,242 136,249"/>
    <path class="fil0 str3" d="M2185 2003c-3,64 96,117 78,156"/>
    <path class="fil0 str3" d="M2054 1912c-79,173 58,211 40,250"/>
    <path class="fil0 str3" d="M1931 2158c-9,-37 84,-39 99,-163"/>
    <path class="fil0 str4" d="M1719 2114c-3,-15 -27,-50 -25,-79"/>
    <path class="fil0 str1" d="M1765 2290c-15,-9 -97,-95 -54,-188"/>
    <path class="fil0 str2" d="M1409 1835c83,-2 120,-29 117,-83 -3,-46 -46,-76 -88,-70 3,-40 10,-116 -54,-137"/>
    <path class="fil0 str1" d="M1211 1390c24,-3 161,72 162,149"/>
    <path class="fil0 str1" d="M999 1528c21,-12 163,1 220,78"/>
    <path class="fil0 str1" d="M884 1747c17,-19 167,-59 254,-3"/>
    <path class="fil0 str1" d="M831 1997c25,-26 143,-84 275,-77"/>
    <path class="fil0 str1" d="M1211 2231c-101,90 -288,91 -313,75"/>
    <path class="fil0 str1" d="M1103 2503c29,7 191,-30 255,-149"/>
    <path class="fil0 str1" d="M1520 2393c0,118 -68,243 -136,250"/>
    <path class="fil0 str4" d="M1986 3107c-27,-63 -43,-60 -42,-157 3,-385 3,-387 -88,-430"/>
    <path class="fil0 str1" d="M2031 3986c-39,-34 -118,-233 -64,-485"/>
    <path class="fil0 str3" d="M2031 4193c-21,-21 -82,-82 -100,-282"/>
    <path class="fil2 str5" d="M1862 1292c-34,-82 -197,-44 -197,-44 -15,-146 72,-128 115,-119 40,8 76,36 153,125 47,10 107,58 125,88 18,30 21,76 -22,56 -44,-20 -77,-18 -95,-3 0,-23 3,-55 38,-49 34,6 31,-22 -9,-42 -30,-15 -58,-21 -107,-12z"/>
    <g>
     <path class="fil0 str6" d="M2206 947c-18,58 -26,109 -32,125l1 0c-100,12 -233,-64 -331,-9 -12,-36 -36,-236 -145,-318 0,0 109,18 136,70 6,-27 40,-54 73,-21 -6,-21 6,-63 54,-65 -13,-20 -6,-47 27,-44 0,0 2,-21 21,-46 21,24 21,46 21,46 29,-3 43,17 27,44 49,3 61,44 55,65 33,-34 66,-6 72,21 27,-52 137,-70 137,-70 -54,41 -88,113 -111,180 8,8 3,21 -6,21z"/>
     <path id="1" class="fil1" d="M2206 947c-18,58 -26,109 -32,125l1 0c-100,12 -233,-64 -331,-9 -12,-36 -36,-236 -145,-318 0,0 109,18 136,70 6,-27 40,-54 73,-21 -6,-21 6,-63 54,-65 -13,-20 -6,-47 27,-44 0,0 2,-21 21,-46 21,24 21,46 21,46 29,-3 43,17 27,44 49,3 61,44 55,65 33,-34 66,-6 72,21 27,-52 137,-70 137,-70 -54,41 -88,113 -111,180 8,8 3,21 -6,21z"/>
    </g>
    <path class="fil2" d="M3208 3601c21,-15 38,28 38,28 32,-22 12,-62 1,-70 -9,10 -27,34 -39,41z"/>
    <path class="fil2" d="M3136 3803c16,36 -5,62 -5,62 46,6 85,-36 76,-60 -19,0 -40,16 -71,-2z"/>
    <path class="fil2" d="M2977 3912c6,21 -14,52 -29,56 81,35 88,-29 88,-29 -13,0 -56,-1 -58,-27z"/>
    <path class="fil2" d="M2633 3744c9,94 117,61 131,27 -34,21 -60,-12 -60,-12 -15,6 -61,18 -70,-15z"/>
    <path class="fil2 str7" d="M823 3594c-21,-15 -38,29 -38,29 -32,-22 -13,-62 -2,-70 9,10 27,34 40,40z"/>
    <path class="fil2 str7" d="M894 3797c-16,36 5,62 5,62 -46,6 -85,-36 -76,-61 18,0 39,17 70,-1z"/>
    <path class="fil2 str7" d="M1054 3906c-6,21 13,52 28,56 -81,35 -88,-29 -88,-29 14,0 56,-1 59,-27z"/>
    <path class="fil2 str7" d="M1397 3738c-9,94 -117,60 -131,27 34,21 61,-12 61,-12 15,6 60,18 70,-15z"/>
    <path class="fil2" d="M2938 2802c0,0 6,351 -49,436l-12 -54c15,-97 43,-521 -46,-694 9,3 52,15 52,15 15,48 49,151 55,296z"/>
    <path class="fil2" d="M3053 2717c54,139 327,254 327,254l-21 -40c-143,-101 -322,-261 -421,-520 -3,35 0,65 0,65 30,70 34,58 115,240z"/>
    <path class="fil2" d="M3265 2311c91,21 229,66 381,6l-34 -12c-40,9 -397,64 -564,-209 -10,3 -58,3 -58,3 20,9 88,37 121,127 -3,0 73,55 152,85z"/>
    <path class="fil2" d="M3343 2087c248,-18 267,-127 267,-127 -140,97 -446,82 -446,82l-48 31c40,6 66,-12 227,15z"/>
    <path class="fil2" d="M2849 1477c182,-156 304,-337 309,-429l-42 34c0,0 -66,205 -268,393l1 3z"/>
    <path class="fil2" d="M3034 1543c149,-130 192,-271 206,-332l29 -32c-3,63 -69,231 -125,278 -26,30 -95,100 -110,112 1,-8 2,-21 0,-26z"/>
    <path class="fil2" d="M3148 1753c221,-43 280,-174 324,-253l-28 12c-15,25 -95,185 -311,232l15 9z"/>
    <path class="fil2" d="M2756 1869c28,17 51,15 85,14 0,58 18,210 -197,316 0,0 194,-139 112,-330z"/>
    <path class="fil2" d="M2721 1762c-9,-58 -61,-180 -61,-180 0,0 78,23 96,98 10,36 -15,69 -15,69l-20 14z"/>
    <path class="fil2" d="M2818 1753c30,-20 39,-27 43,-70l-139 80 167 101c5,-52 -70,-110 -70,-110z"/>
    <path class="fil2" d="M2633 1942c0,0 104,-46 110,-97l-21 -83 -88 180z"/>
    <path class="fil2" d="M2536 1768c0,0 47,-59 101,-52 22,21 40,39 85,46l-186 6z"/>
    <path class="fil2" d="M2251 2418c68,15 83,-9 119,-46 64,46 158,12 194,-18 106,30 127,-15 149,-73 112,-15 124,-82 127,-121 97,-42 80,-164 50,-203 82,-55 52,-168 -6,-198 83,-97 -44,-182 -105,-132 0,-64 -74,-97 -133,-76l-15 6c78,-40 139,41 137,88 73,-58 186,32 103,123 58,31 88,144 6,198 30,40 47,158 -50,200 -3,40 -15,118 -127,133 -21,58 -43,103 -149,73 -36,30 -131,64 -194,18 -36,36 -52,60 -119,46l12 -18z"/>
    <path class="fil2" d="M2719 1449l382 -353c0,0 -242,252 -306,303 0,0 -58,32 -76,50z"/>
    <path class="fil2" d="M2617 1862c-123,18 -143,-71 -149,-102 -40,-204 212,-454 291,-533 -95,66 -170,133 -276,315 -101,173 -36,363 133,336 0,-6 1,-16 1,-16z"/>
    <path class="fil2" d="M2819 1396c21,31 79,173 -40,228 91,-76 40,-165 26,-204l14 -23z"/>
    <path class="fil2" d="M2799 1432l-80 118c0,0 14,5 14,6 0,2 66,-124 66,-124z"/>
    <path class="fil2" d="M3556 1852c-81,63 -284,107 -413,113 0,0 21,11 28,17 0,0 53,-2 155,-17 200,-18 276,-123 276,-123l-46 9z"/>
    <path class="fil2" d="M3361 1778c182,-85 170,-170 170,-170 -34,55 -117,170 -389,164l-11 24c0,0 108,-20 230,-18z"/>
    <path class="fil2" d="M2895 1747c135,-37 145,-177 137,-213l-21 14c0,42 -14,149 -107,180 -3,6 -9,18 -9,20z"/>
    <path class="fil2" d="M3002 1554l-115 84c0,0 10,9 9,10 0,2 106,-95 106,-95z"/>
    <path class="fil2" d="M2796 1618l426 -388c-28,17 -356,302 -377,327 -8,11 -20,41 -46,59l-3 2z"/>
    <path class="fil2" d="M2923 1924c152,13 218,-132 223,-171l-27 5c-16,42 -75,143 -182,140 -4,5 -15,24 -15,26z"/>
    <path class="fil2" d="M3106 1765l-177 49c0,0 7,13 6,15 -1,1 171,-64 171,-64z"/>
    <path class="fil2" d="M2909 2083c157,57 271,-48 291,-82l-32 -3c-33,32 -143,110 -257,75 0,7 -3,8 -3,9z"/>
    <path class="fil2" d="M3153 2000l-247 -14c0,0 4,14 3,15 -2,1 245,-1 245,-1z"/>
    <path class="fil2" d="M2911 2074c192,34 222,192 221,237l-33 -15c-13,-52 -58,-175 -193,-206 2,-7 4,-13 5,-16z"/>
    <path class="fil2" d="M3081 2290l-242 -129c0,0 27,-12 26,-14 -1,-1 217,143 217,143z"/>
    <path class="fil2" d="M2995 1681l16 -30c30,-32 321,-206 320,-327 0,0 24,109 -103,193 -30,11 -181,109 -233,164z"/>
    <path class="fil2" d="M2940 1729c4,-3 38,-28 38,-28 49,-41 436,-178 436,-178 -51,22 -391,173 -426,198 -10,1 -36,1 -48,9z"/>
    <path class="fil2" d="M3537 1844c-151,18 -371,30 -486,47 0,0 -42,28 -88,34 0,0 0,-6 40,3 0,0 281,-64 534,-83z"/>
    <path class="fil2" d="M2813 2236c156,112 131,229 114,271l-26 -26c5,-53 -3,-137 -101,-231 3,-6 11,-12 13,-15z"/>
    <path class="fil2" d="M2893 2468l-169 -172c0,0 17,-4 17,-7 -1,-2 152,179 152,179z"/>
    <path class="fil2" d="M2672 2358c82,125 4,263 -27,290l-9 -30c26,-39 80,-143 21,-247 5,-3 12,-11 15,-12z"/>
    <path class="fil2" d="M2646 2648c0,0 -23,-9 -26,-9 -27,97 9,288 36,345 -21,-100 3,-300 3,-300l-13 -36z"/>
    <path class="fil2" d="M2634 2600l-58 -223c0,0 16,6 16,4 1,-2 42,219 42,219z"/>
    <path class="fil2" d="M2519 2802l30 -36c15,-16 46,-90 45,-144l-15 -18c-4,37 -18,134 -61,170l2 28z"/>
    <path class="fil2" d="M2494 2402l-20 6c9,68 38,355 38,355l-18 -361z"/>
    <path class="fil2" d="M3544 2490c-64,-12 -333,-155 -393,-239l-37 -25c14,26 20,59 18,77 52,47 212,168 412,186z"/>
    <path class="fil2" d="M3023 2317c0,0 266,367 287,485 0,0 -330,-493 -381,-505 0,0 73,24 95,21z"/>
    <path class="fil2" d="M3216 3045c-109,-91 -173,-164 -288,-534l-46 -6c18,88 91,430 333,540z"/>
    <path class="fil2" d="M2771 2456c0,0 -3,424 66,591 0,0 -124,-333 -106,-612l40 21z"/>
    <path class="fil2" d="M3413 2229c0,0 -260,-100 -306,-149l-34 6c27,27 95,79 339,143z"/>
    <path class="fil2" d="M2301 2275l18 -64c9,9 193,-3 314,-74 -44,38 -107,113 -332,137z"/>
    <path class="fil2" d="M1844 1145c12,-115 143,-15 373,-43 15,-9 27,-3 36,-18 0,0 3,34 -12,49 -149,6 -406,-88 -397,12z"/>
    <path class="fil2" d="M1880 1151c12,-115 191,42 385,30 15,-9 27,-3 36,-18 0,0 3,34 -12,48 -185,15 -418,-161 -409,-60z"/>
    <path class="fil2" d="M1917 1124c0,0 -27,54 64,91 0,0 -76,-58 -40,-85l-24 -6z"/>
    <path class="fil2" d="M2031 1157c0,0 3,27 -21,36 0,0 36,-6 48,-24l-27 -12z"/>
    <path class="fil2" d="M1702 1363c76,21 194,-88 294,-25l-3 9 -14 -2c-56,-44 -226,56 -278,17z"/>
    <path class="fil2" d="M1968 1136c0,0 -15,55 25,55 0,0 -18,-46 0,-46l-25 -9z"/>
    <path class="fil2" d="M2250 1235c61,137 -12,355 25,406 -43,-12 6,-339 -58,-415l33 9z"/>
    <path class="fil2" d="M2247 1663c-9,64 -46,193 72,221 -160,-6 -94,-197 -90,-242l18 21z"/>
    <path class="fil2" d="M2023 1421c18,64 12,193 -109,251 91,-30 157,-70 137,-239l-27 -12z"/>
    <path class="fil2" d="M1927 1695c-36,52 -123,195 -196,186 46,21 135,-33 220,-186l-24 0z"/>
    <path class="fil2" d="M1778 1899c36,0 137,-54 170,-134 0,0 -32,105 -9,207 0,0 -53,-86 -30,-123 0,0 -33,66 -131,50z"/>
    <path class="fil2" d="M1939 1973c35,-11 121,-91 130,-177 0,0 0,111 52,201 0,0 -80,-41 -68,-84 0,0 -15,46 -114,60z"/>
    <path class="fil2" d="M2157 1274c152,280 -124,434 -128,572 -27,-117 226,-326 128,-572z"/>
    <path class="fil2" d="M2097 1536c9,76 -74,130 -95,248 -22,-95 75,-147 95,-248z"/>
    <path class="fil2" d="M2122 1997c29,-21 57,-74 62,-188 0,0 29,158 125,140 0,0 -101,22 -113,-58 0,0 16,63 -74,107z"/>
    <path class="fil2" d="M2013 1793c0,0 9,-12 0,0 -9,12 -46,125 -46,139 0,0 -27,-70 46,-139z"/>
    <path class="fil2" d="M2135 1796c20,38 -3,127 -12,151 0,-30 4,-116 12,-151z"/>
    <path class="fil2" d="M1870 1949c6,18 -27,82 -121,130l-30 35c64,-42 191,-86 181,-195l-30 30z"/>
    <path class="fil2" d="M1840 1934c-31,21 -82,88 -82,107 0,0 3,-70 40,-91l43 -15z"/>
    <path class="fil2" d="M2263 2160c40,-15 67,-74 73,-117 10,47 -11,100 -81,138l8 -21z"/>
    <path class="fil2" d="M2281 2090c-21,-15 5,-85 -60,-127 34,18 53,14 53,14 27,68 1,89 7,113z"/>
    <path class="fil2" d="M2094 2162c40,-15 91,-124 82,-197 31,88 -26,174 -89,218l8 -21z"/>
    <path class="fil2" d="M2116 2107c-35,-26 13,-46 -52,-131 34,30 44,40 44,40 27,69 -9,69 8,91z"/>
    <path class="fil2" d="M1931 2158c-36,-22 -72,-89 -55,-156 -44,70 7,125 58,179l-3 -22z"/>
    <path class="fil2" d="M1919 2099c24,-11 13,-94 85,-123 -37,11 -56,21 -56,21 -40,61 -18,79 -29,102z"/>
    <path class="fil2" d="M2031 1997c-5,25 -11,70 -56,110 0,0 54,-38 52,-52 0,0 -6,32 47,64 0,0 -54,-57 -44,-122z"/>
    <path class="fil2" d="M1872 2101c10,93 -101,138 -109,190l-3 -37c43,-48 113,-106 76,-209l34 -33c-4,14 -21,45 3,88z"/>
    <path class="fil2" d="M2168 2223c-38,33 -113,31 -155,-5 -48,42 -151,34 -175,-15l-2 -3c24,48 119,48 168,6 41,36 114,38 153,7l10 10z"/>
    <path class="fil2" d="M2240 2296c-21,19 -122,26 -153,-8 -38,32 -119,33 -160,-3 -43,38 -126,37 -162,3l-1 -3c39,27 113,24 152,-10 41,36 122,34 160,3 30,34 134,27 155,8l9 10z"/>
    <path class="fil2" d="M2247 2314l2 -17c19,-40 -102,-64 -89,-193l-21 33c-10,93 100,126 109,178z"/>
    <path class="fil2" d="M2263 2292c3,26 21,85 -35,162l5 -34c0,0 30,-40 16,-107l14 -21z"/>
    <path class="fil2" d="M1749 2275c-3,26 -12,95 56,176l-2 -30c0,0 -54,-47 -39,-131l-15 -15z"/>
    <g id="_285095408">
     <path class="fil2" d="M2285 2162c3,26 18,76 -38,154l38 -154z"/>
     <path class="fil2" d="M1877 2001c15,-20 34,-34 51,-43l-51 43z"/>
     <path class="fil2" d="M2227 2454c-9,-52 -107,-70 -106,-147l106 147z"/>
     <path class="fil2" d="M1805 2450c9,-52 83,-67 82,-143l-82 143z"/>
    </g>
    <path class="fil2" d="M1857 2378c40,25 109,18 148,-15 41,36 115,34 146,9l10 10c-32,23 -106,29 -148,-8 -42,37 -122,41 -158,8l2 -4z"/>
    <path class="fil2" d="M1092 2796c0,0 -6,351 49,436l12 -54c-15,-97 -42,-521 46,-694 -9,3 -52,15 -52,15 -15,48 -49,151 -55,296z"/>
    <path class="fil2" d="M977 2712c-54,139 -326,254 -326,254l21 -40c143,-101 323,-261 421,-520 3,35 0,65 0,65 -30,70 -33,58 -115,240z"/>
    <path class="fil2" d="M766 2306c-92,21 -229,65 -382,6l34 -12c40,9 397,64 564,-209 10,3 58,3 58,3 -20,9 -88,37 -121,127 3,0 -73,55 -151,85z"/>
    <path class="fil2" d="M687 2082c-248,-18 -266,-127 -266,-127 139,97 445,82 445,82l48 30c-39,7 -66,-12 -227,15z"/>
    <path class="fil2" d="M1182 1471c-183,-156 -304,-336 -310,-428l42 33c0,0 66,206 268,393l0 2z"/>
    <path class="fil2" d="M996 1538c-148,-130 -192,-271 -206,-332l-29 -32c3,63 70,231 126,278 26,30 95,100 109,112 0,-9 -1,-21 0,-26z"/>
    <path class="fil2" d="M882 1747c-221,-42 -280,-174 -324,-253l29 12c15,24 95,185 310,232l-15 9z"/>
    <path class="fil2" d="M1275 1864c-27,17 -51,15 -85,14 0,58 -18,210 197,316 0,0 -193,-139 -112,-330z"/>
    <path class="fil2" d="M1310 1757c9,-58 61,-181 61,-181 0,0 -78,24 -97,98 -9,37 15,70 15,70l21 14z"/>
    <path class="fil2" d="M1213 1747c-30,-20 -39,-27 -43,-70l140 80 -168 101c-4,-52 70,-110 70,-110z"/>
    <path class="fil2" d="M1398 1937c0,0 -105,-46 -110,-98l21 -82 88 180z"/>
    <path class="fil2" d="M1494 1763c0,0 -47,-60 -101,-52 -22,21 -40,39 -84,46l185 6z"/>
    <path class="fil2" d="M1769 2395c-47,4 -73,8 -109,-28 -64,45 -158,12 -194,-19 -106,31 -127,-15 -149,-72 -112,-15 -124,-82 -127,-121 -97,-43 -80,-164 -50,-204 -82,-54 -52,-168 6,-198 -83,-97 44,-182 105,-132 0,-64 74,-98 133,-76l15 6c-79,-40 -140,41 -138,88 -73,-58 -186,32 -103,123 -58,30 -88,144 -6,198 -30,40 -46,157 50,200 3,40 15,118 127,133 21,58 43,103 149,73 37,30 131,64 194,18 36,36 53,35 109,33l-12 -22z"/>
    <path class="fil2" d="M1311 1444l-382 -353c0,0 242,252 306,303 0,0 58,32 76,50z"/>
    <path class="fil2" d="M1413 1856c123,19 143,-70 149,-101 41,-204 -212,-454 -291,-533 95,66 170,133 276,314 101,174 37,364 -133,337 0,-6 -1,-17 -1,-17z"/>
    <path class="fil2" d="M1211 1391c-21,30 -79,173 40,228 -91,-76 -40,-166 -25,-204l-15 -23z"/>
    <path class="fil2" d="M1231 1427l80 118c0,0 -14,4 -14,6 0,2 -66,-124 -66,-124z"/>
    <path class="fil2" d="M475 1847c81,63 284,107 413,113 0,0 -21,10 -28,16 0,0 -53,-1 -155,-16 -200,-18 -276,-123 -276,-123l46 9z"/>
    <path class="fil2" d="M669 1772c-182,-84 -170,-169 -170,-169 34,54 117,169 389,163l11 25c0,0 -107,-20 -230,-19z"/>
    <path class="fil2" d="M1135 1741c-135,-37 -145,-177 -137,-213l21 14c0,42 14,149 107,180 3,6 9,18 9,20z"/>
    <path class="fil2" d="M1029 1549l114 84c0,0 -10,9 -9,10 1,2 -105,-95 -105,-95z"/>
    <path class="fil2" d="M1234 1613l-426 -388c28,17 356,302 377,327 8,10 20,41 46,59l3 2z"/>
    <path class="fil2" d="M1107 1918c-152,13 -218,-132 -223,-172l27 6c16,42 74,143 181,140 4,5 15,24 15,26z"/>
    <path class="fil2" d="M925 1759l176 49c0,0 -7,13 -6,15 2,1 -170,-64 -170,-64z"/>
    <path class="fil2" d="M1122 2077c-157,58 -271,-48 -290,-81l31 -3c33,33 143,110 257,76 0,7 3,7 3,9z"/>
    <path class="fil2" d="M877 1995l247 -14c0,0 -4,14 -3,15 2,1 -245,-1 -245,-1z"/>
    <path class="fil2" d="M1119 2069c-192,34 -222,192 -221,237l33 -15c13,-52 58,-175 193,-205 -2,-7 -4,-14 -5,-16z"/>
    <path class="fil2" d="M949 2285l243 -129c0,0 -28,-12 -27,-14 1,-2 -217,143 -217,143z"/>
    <path class="fil2" d="M1035 1676l-16 -31c-30,-32 -321,-205 -320,-326 0,0 -24,108 103,193 30,11 181,109 233,164z"/>
    <path class="fil2" d="M1092 1724c-5,-3 -38,-28 -38,-28 -50,-41 -437,-178 -437,-178 51,22 392,173 426,197 11,2 37,2 49,9z"/>
    <path class="fil2" d="M493 1839c152,18 371,30 486,47 0,0 43,28 88,33 0,0 0,-6 -40,3 0,0 -280,-64 -534,-83z"/>
    <path class="fil2" d="M1217 2231c-155,112 -130,229 -114,271l26 -26c-5,-53 3,-137 102,-232 -4,-6 -12,-11 -14,-14z"/>
    <path class="fil2" d="M1137 2463l169 -172c0,0 -17,-5 -16,-7 0,-2 -153,179 -153,179z"/>
    <path class="fil2" d="M1358 2353c-82,124 -4,263 27,290l9 -30c-26,-39 -80,-143 -21,-247 -6,-3 -13,-11 -15,-12z"/>
    <path class="fil2" d="M1384 2643c0,0 23,-9 27,-9 27,97 -9,288 -37,345 21,-101 -3,-300 -3,-300l13 -36z"/>
    <path class="fil2" d="M1397 2595l58 -223c0,0 -16,5 -16,3 -1,-2 -42,220 -42,220z"/>
    <path class="fil2" d="M1511 2796l-30 -35c-15,-16 -46,-90 -45,-144l15 -18c5,37 18,133 61,170l-2 27z"/>
    <path class="fil2" d="M1537 2397l20 6c-9,68 -38,354 -38,354l18 -360z"/>
    <path class="fil2" d="M487 2485c64,-12 333,-155 394,-239l36 -25c-14,26 -20,59 -18,77 -52,47 -212,168 -412,186z"/>
    <path class="fil2" d="M1008 2312c0,0 -267,367 -288,485 0,0 330,-493 381,-506 0,0 -73,25 -94,21z"/>
    <path class="fil2" d="M814 3039c109,-90 173,-163 288,-533l46 -6c-18,88 -91,430 -333,539z"/>
    <path class="fil2" d="M1259 2451c0,0 3,424 -66,591 0,0 124,-333 106,-612l-40 21z"/>
    <path class="fil2" d="M617 2224c0,0 260,-101 306,-149l34 6c-27,27 -95,79 -339,143z"/>
    <path class="fil2" d="M1717 2270l-43 -64c-9,9 -156,-3 -277,-74 44,37 95,113 320,137z"/>
    <path class="fil2" d="M2228 2463c-34,15 -84,15 -110,-14 -38,32 -165,44 -215,-3 -31,27 -59,34 -99,23l-2 -8c39,7 61,-1 89,-26 41,36 177,34 215,3 31,34 104,27 125,8l-3 16z"/>
    <path class="fil2" d="M2011 3235c0,-131 85,-131 85,-248 0,-382 -9,-424 82,-467 -133,9 -101,310 -101,469 0,43 -55,94 -66,113l0 133z"/>
    <path class="fil2" d="M1866 2521c40,24 101,18 139,-15 41,36 125,45 156,20l0 0c-32,23 -106,29 -148,-8 -42,37 -111,37 -148,3l0 0z"/>
    <path class="fil2" d="M2007 3523c0,0 59,-131 61,-313 15,27 82,70 82,70 -15,-14 -60,-31 -60,-6 0,59 -40,217 -82,297l-2 -48z"/>
    <path class="fil2" d="M2009 3571c-24,-31 -83,-203 -76,-357 -10,9 -8,40 -53,60l129 297z"/>
    <path class="fil2" d="M1724 3458c117,74 167,-141 173,-192 31,-27 37,-52 37,-52 0,0 2,82 2,94 0,0 -120,265 -211,150z"/>
    <path class="fil2" d="M2059 3432c18,42 95,373 -27,554l3 61c85,-97 121,-482 24,-615z"/>
    <path class="fil2" d="M2050 3514c0,0 -19,56 -40,77l-23 -32c5,34 41,82 35,253l27 -298z"/>
    <path class="fil2" d="M2039 3179c0,-22 53,-83 61,-106 10,32 -4,97 72,188 0,0 -78,-37 -92,-123 0,0 -47,46 -59,174 0,0 -9,-73 18,-134z"/>
    <path class="fil2" d="M2103 3274l27 13c0,0 41,133 79,177 0,0 -97,-91 -107,-190z"/>
    <path class="fil2" d="M1952 3475c0,0 -44,163 -171,225 0,0 98,-50 153,-103 0,0 -3,-62 18,-122z"/>
    <path class="fil2" d="M2056 2553c0,0 30,6 42,3 0,0 -40,52 -52,197l9 -200z"/>
    <path class="fil2" d="M1975 2553c0,0 -31,6 -43,3 0,0 40,12 36,100l7 -103z"/>
    <path class="fil2" d="M2247 3786c239,103 312,-118 242,-163 0,0 46,227 -228,139 0,0 -112,-48 -130,-100l2 52c21,12 52,52 113,72z"/>
    <path class="fil2" d="M1808 3772c-240,121 -339,-46 -271,-137 0,0 -48,213 198,136 0,0 186,-76 199,-129l-2 55c-20,14 -68,48 -125,76z"/>
    <path class="fil2" d="M2001 4014l27 54 21 -15c0,0 -31,48 -34,90l-15 -130z"/>
    <path class="fil2" d="M1938 3774c0,12 -3,34 6,58 -78,101 -151,226 -306,234 -82,3 -151,-79 -118,-155 6,85 47,119 142,115 70,-3 198,-115 276,-252z"/>
    <path class="fil2" d="M2119 3871c69,91 142,187 277,194 82,3 151,-79 118,-155 -6,85 -47,119 -143,115 -61,-3 -167,-90 -245,-204l-7 49z"/>
    <path class="fil2" d="M1982 3179c0,-22 -52,-83 -60,-106 -11,32 4,97 -73,188 0,0 79,-37 93,-123 0,0 46,46 58,174 0,0 9,-73 -18,-134z"/>
    <path class="fil2" d="M2109 3501c40,66 75,165 129,181 0,0 -92,-30 -115,-116l-14 -65z"/>
    <path class="fil2" d="M2512 2900c-33,-4 -86,-20 -125,-74 -32,-2 -109,-40 -135,-73l-6 -9c26,34 99,63 131,64 40,55 88,69 121,73l15 20z"/>
    <path class="fil2" d="M2531 3144c125,36 133,-24 133,-24 0,0 -84,47 -242,-37 15,139 -35,178 -124,218 42,-3 87,-34 118,-66 20,-20 35,-53 20,-135 0,0 23,22 95,44z"/>
    <path class="fil2" d="M2543 2966c-34,-4 -87,-20 -126,-75 -32,-1 -109,-39 -135,-72l-6 -9c26,34 99,63 131,64 40,55 88,69 121,73l15 20z"/>
    <path class="fil2" d="M2581 3063c-33,-5 -86,-20 -125,-75 -32,-1 -109,-40 -135,-72l-6 -9c26,34 99,62 131,64 40,55 88,68 121,73l15 20z"/>
    <path class="fil2" d="M2287 3174c27,-30 58,-109 64,-127 0,0 -12,125 -56,157l-8 -30z"/>
    <path class="fil2" d="M2604 3290c15,0 30,-15 30,-15 -12,0 -46,20 -123,-32 0,0 45,47 93,47z"/>
    <path class="fil2" d="M2690 3375c9,0 24,-21 24,-21 0,0 -59,41 -139,-24 0,0 46,53 115,46z"/>
    <path class="fil2" d="M2756 3460c6,0 26,-11 26,-11 0,0 -53,11 -125,-34 0,0 50,41 100,45z"/>
    <path class="fil2" d="M2836 3506l-9 12c-14,12 -66,26 -127,-21 0,0 53,46 137,9z"/>
    <path class="fil2" d="M3200 3577c24,-18 22,-60 20,-71 11,10 13,38 13,38 0,12 -18,31 -33,34z"/>
    <path class="fil2" d="M3202 3780c-7,7 -34,20 -55,10 0,0 67,1 60,-100 14,18 25,50 -5,89z"/>
    <path class="fil2" d="M3042 3914c-19,7 -25,6 -46,-1 31,-1 73,-20 79,-78 5,21 2,60 -34,79z"/>
    <path class="fil2" d="M2585 3714c9,11 40,54 89,10 0,0 -58,24 -89,-10z"/>
    <path class="fil2" d="M1519 2894c34,-4 86,-20 125,-74 32,-2 109,-40 135,-73l6 -9c-26,34 -98,63 -130,64 -40,55 -88,69 -122,73l-15 20z"/>
    <path class="fil2" d="M1499 3138c-125,36 -133,-24 -133,-24 0,0 84,47 242,-37 -14,139 35,178 124,218 -42,-3 -87,-34 -118,-66 -20,-20 -35,-53 -20,-135 0,0 -22,22 -95,44z"/>
    <path class="fil2" d="M1488 2960c33,-5 86,-20 125,-75 32,-1 109,-39 135,-72l6 -9c-26,34 -99,62 -131,64 -40,55 -88,69 -121,73l-15 20z"/>
    <path class="fil2" d="M1449 3057c34,-5 86,-20 125,-75 32,-2 109,-40 135,-72l6 -9c-26,34 -99,62 -131,64 -39,55 -88,68 -121,73l-15 20z"/>
    <path class="fil2" d="M1744 3168c-27,-30 -58,-109 -64,-127 0,0 13,125 56,157l9 -30z"/>
    <path class="fil2" d="M1426 3284c-15,0 -30,-15 -30,-15 12,0 47,20 123,-32 0,0 -44,47 -93,47z"/>
    <path class="fil2" d="M1342 3369c-9,0 -25,-21 -25,-21 0,0 59,41 140,-24 0,0 -46,53 -115,46z"/>
    <path class="fil2" d="M1275 3454c-6,0 -26,-11 -26,-11 0,0 53,11 125,-34 0,0 -50,41 -100,45z"/>
    <path class="fil2" d="M1195 3500l9 12c14,12 67,26 127,-21 0,0 -52,45 -136,9z"/>
    <path class="fil2" d="M830 3571c-24,-18 -22,-60 -20,-71 -11,10 -12,38 -12,38 0,11 17,31 32,34z"/>
    <path class="fil2" d="M829 3774c8,7 34,20 55,10 0,0 -66,1 -60,-100 -13,18 -25,50 5,89z"/>
    <path class="fil2" d="M1445 3708c-8,11 -40,54 -89,10 0,0 58,24 89,-10z"/>
    <path class="fil2" d="M990 3908c19,7 25,6 46,-1 -31,-1 -73,-20 -79,-78 -5,21 -2,60 34,79z"/>
    <g id="_167449672">
     <path class="fil2" d="M2019 955c-21,1 143,-3 186,-9 9,0 14,-14 6,-21 0,0 -90,29 -192,30z"/>
     <path class="fil2" d="M2115 793c3,-15 -2,-38 -21,-52 15,21 10,44 10,86 0,0 1,-21 10,-34z"/>
     <path class="fil2" d="M2059 728c15,-28 1,-38 -8,-40 17,21 3,40 -10,40 0,0 11,-2 18,0z"/>
     <path class="fil2" d="M2031 685c0,0 1,-21 -21,-46 3,11 17,33 8,53 0,0 3,-9 13,-8z"/>
     <path class="fil2" d="M2002 817c22,0 33,-18 33,-40 0,-22 -10,-40 -33,-40l8 0c22,0 40,17 40,40 0,21 -18,40 -40,40l-8 0z"/>
     <path class="fil2" d="M2186 814c-3,-14 -13,-27 -27,-34 0,0 28,29 0,77 0,0 20,-34 27,-44z"/>
     <path class="fil2" d="M2006 1034c57,5 168,-4 180,-9l5 -20c0,0 -107,31 -185,29z"/>
     <path class="fil2" d="M2106 816c3,26 36,64 22,93l-4 12c14,-29 -20,-67 -22,-93l4 -12z"/>
     <path class="fil2" d="M2049 808c2,20 38,59 24,88l-18 22c26,-36 -14,-79 -15,-99l9 -12z"/>
     <path class="fil2" d="M2283 772c-16,16 -62,74 -80,135 -8,-27 18,-103 80,-135z"/>
     <path class="fil2" d="M2001 955c21,1 -142,-3 -186,-9 -10,0 -14,-14 -7,-21 0,0 91,29 192,30z"/>
     <path class="fil2" d="M1907 793c-4,-15 1,-38 20,-52 -14,21 -9,44 -9,86 0,0 -1,-21 -10,-34z"/>
     <path class="fil2" d="M1962 728c-15,-28 0,-38 9,-40 -18,21 -3,40 10,40 0,0 -12,-2 -19,0z"/>
     <path class="fil2" d="M1989 685c0,0 -1,-21 21,-46 -4,11 -17,33 -8,53 0,0 -3,-9 -14,-8z"/>
     <path class="fil2" d="M1835 814c3,-14 14,-27 27,-34 0,0 -28,29 -1,77 0,0 -20,-34 -27,-44z"/>
     <path class="fil2" d="M2016 1034c-57,5 -168,-4 -180,-9l-4 -20c0,0 106,31 185,29z"/>
     <path class="fil2" d="M1915 816c-3,26 -37,64 -23,93l5 12c-14,-29 20,-67 22,-93l-4 -12z"/>
     <path class="fil2" d="M1973 808c-2,20 -38,59 -24,88l18 22c-26,-36 14,-79 15,-99l-9 -12z"/>
     <path class="fil2" d="M1738 772c17,16 63,74 81,135 8,-27 -18,-103 -81,-135z"/>
    </g>
   </g>
   <rect class="fil0 str8" x="182" y="437" width="3713" height="3937"/>
  </g>
 </g>
</svg>
